<svg width="373" height="55" viewBox="0 0 373 55" fill="none" xmlns="http://www.w3.org/2000/svg">
<g id="David Dowell" filter="url(#filter0_d_1_2)">
<path d="M7.552 46C6.69867 46 5.97333 45.744 5.376 45.232C4.77867 44.6773 4.48 43.9947 4.48 43.184V4.016C4.48 3.20533 4.75733 2.544 5.312 2.032C5.90933 1.47733 6.656 1.2 7.552 1.2H22.528C26.1547 1.2 29.3547 1.88266 32.128 3.248C34.9013 4.61333 37.056 6.53333 38.592 9.008C40.1707 11.44 40.96 14.2347 40.96 17.392V29.68C40.96 32.8373 40.1707 35.6533 38.592 38.128C37.056 40.6027 34.88 42.544 32.064 43.952C29.2907 45.3173 26.112 46 22.528 46H7.552ZM21.888 40.752C25.984 40.752 29.184 39.792 31.488 37.872C33.792 35.9093 34.944 33.2 34.944 29.744V17.328C34.944 13.9147 33.792 11.248 31.488 9.328C29.184 7.408 25.984 6.448 21.888 6.448H10.496V40.752H21.888ZM58.2915 46.576C54.6222 46.576 51.6568 45.5947 49.3955 43.632C47.1768 41.6693 46.0675 39.088 46.0675 35.888C46.0675 32.6453 47.2408 30.0427 49.5875 28.08C51.9342 26.0747 55.0275 25.072 58.8675 25.072C62.9635 25.072 66.3342 26.5227 68.9795 29.424L69.2355 29.168C68.7662 28.656 68.2328 28.1227 67.6355 27.568V24.88C67.6355 22.704 66.9528 21.0187 65.5875 19.824C64.2222 18.6293 62.2808 18.032 59.7635 18.032C55.2835 18.032 52.0835 19.8027 50.1635 23.344C49.4808 23.0027 48.9048 22.5547 48.4355 22C48.0088 21.4027 47.7955 20.8053 47.7955 20.208C47.7955 19.056 48.3715 17.968 49.5235 16.944C50.6755 15.8773 52.1902 15.024 54.0675 14.384C55.9875 13.744 57.9928 13.424 60.0835 13.424C64.1368 13.424 67.3155 14.4267 69.6195 16.432C71.9662 18.4373 73.1395 21.2107 73.1395 24.752V42.288C73.1395 43.7813 72.7128 44.8693 71.8595 45.552C71.0062 46.2347 69.6622 46.576 67.8275 46.576V43.568C68.7235 42.6293 69.2142 42.0747 69.2995 41.904L69.0435 41.648C66.2702 44.9333 62.6862 46.576 58.2915 46.576ZM59.2515 42.16C61.8968 42.16 63.9662 41.6053 65.4595 40.496C66.9955 39.3867 67.7635 37.8507 67.7635 35.888C67.7635 33.9253 67.0168 32.368 65.5235 31.216C64.0302 30.064 61.9822 29.488 59.3795 29.488C56.9475 29.488 55.0275 30.064 53.6195 31.216C52.2542 32.3253 51.5715 33.8827 51.5715 35.888C51.5715 37.8933 52.2328 39.4507 53.5555 40.56C54.9208 41.6267 56.8195 42.16 59.2515 42.16ZM92.4215 46.576C91.7815 46.576 91.2055 46.4053 90.6935 46.064C90.1815 45.7227 89.8188 45.296 89.6055 44.784L77.3175 13.872C77.5735 13.744 77.9362 13.6373 78.4055 13.552C78.8748 13.4667 79.3015 13.424 79.6855 13.424C80.6242 13.424 81.4562 13.6373 82.1815 14.064C82.9068 14.4907 83.3975 15.1093 83.6535 15.92L92.1015 38.896L91.2055 41.456L91.5255 41.584L101.126 15.92C101.382 15.1093 101.872 14.4907 102.598 14.064C103.323 13.6373 104.134 13.424 105.03 13.424C105.414 13.424 105.84 13.4667 106.31 13.552C106.779 13.6373 107.163 13.744 107.462 13.872L95.1735 44.784C94.9602 45.296 94.5975 45.7227 94.0855 46.064C93.6162 46.4053 93.0615 46.576 92.4215 46.576ZM117.392 8.624C116.197 8.624 115.194 8.24 114.384 7.472C113.573 6.704 113.168 5.744 113.168 4.592C113.168 3.44 113.573 2.50133 114.384 1.776C115.194 1.008 116.197 0.623997 117.392 0.623997C118.544 0.623997 119.525 1.008 120.336 1.776C121.146 2.50133 121.552 3.44 121.552 4.592C121.552 5.744 121.146 6.704 120.336 7.472C119.525 8.24 118.544 8.624 117.392 8.624ZM114.576 17.52C114.576 16.112 115.024 15.088 115.92 14.448C116.858 13.7653 118.266 13.424 120.144 13.424V42.48C120.144 43.888 119.674 44.9333 118.736 45.616C117.84 46.256 116.453 46.576 114.576 46.576V17.52ZM142.255 46.576C138.585 46.576 135.599 45.5733 133.295 43.568C131.033 41.52 129.903 38.8107 129.903 35.44V24.496C129.903 22.32 130.436 20.4 131.503 18.736C132.569 17.0293 134.041 15.728 135.919 14.832C137.839 13.8933 140.036 13.424 142.51 13.424C144.516 13.424 146.372 13.8507 148.079 14.704C149.785 15.5147 151.279 16.6027 152.559 17.968L152.751 17.648C152.452 17.2213 152.004 16.752 151.407 16.24V4.976C151.407 3.568 151.876 2.50133 152.815 1.776C153.753 1.008 155.161 0.623997 157.039 0.623997V42.032C157.039 43.44 156.612 44.5493 155.759 45.36C154.948 46.1707 153.625 46.576 151.791 46.576V42.992C152.388 42.224 152.793 41.6693 153.007 41.328L152.815 41.072C151.449 42.7787 149.935 44.1227 148.271 45.104C146.607 46.0853 144.601 46.576 142.255 46.576ZM143.471 41.648C145.732 41.648 147.631 41.072 149.167 39.92C150.703 38.7253 151.471 37.2533 151.471 35.504V24.432C151.471 22.7253 150.745 21.296 149.295 20.144C147.844 18.9493 145.881 18.352 143.407 18.352C140.889 18.352 138.927 18.928 137.519 20.08C136.153 21.1893 135.47 22.7467 135.47 24.752V35.184C135.47 37.2747 136.153 38.8747 137.519 39.984C138.927 41.0933 140.911 41.648 143.471 41.648ZM185.552 46C184.699 46 183.973 45.744 183.376 45.232C182.779 44.6773 182.48 43.9947 182.48 43.184V4.016C182.48 3.20533 182.757 2.544 183.312 2.032C183.909 1.47733 184.656 1.2 185.552 1.2H200.528C204.155 1.2 207.355 1.88266 210.128 3.248C212.901 4.61333 215.056 6.53333 216.592 9.008C218.171 11.44 218.96 14.2347 218.96 17.392V29.68C218.96 32.8373 218.171 35.6533 216.592 38.128C215.056 40.6027 212.88 42.544 210.064 43.952C207.291 45.3173 204.112 46 200.528 46H185.552ZM199.888 40.752C203.984 40.752 207.184 39.792 209.488 37.872C211.792 35.9093 212.944 33.2 212.944 29.744V17.328C212.944 13.9147 211.792 11.248 209.488 9.328C207.184 7.408 203.984 6.448 199.888 6.448H188.496V40.752H199.888ZM237.828 46.576C235.225 46.576 232.857 46.0853 230.724 45.104C228.633 44.1227 226.99 42.8 225.796 41.136C224.644 39.4293 224.068 37.5307 224.068 35.44V24.944C224.068 22.8107 224.644 20.8693 225.796 19.12C226.99 17.3707 228.633 15.984 230.724 14.96C232.814 13.936 235.182 13.424 237.828 13.424C240.473 13.424 242.841 13.936 244.932 14.96C247.065 15.984 248.708 17.3707 249.86 19.12C251.054 20.8693 251.652 22.8107 251.652 24.944V35.44C251.652 37.5307 251.054 39.4293 249.86 41.136C248.665 42.8 247.022 44.1227 244.932 45.104C242.841 46.0853 240.473 46.576 237.828 46.576ZM237.828 41.776C240.388 41.776 242.414 41.1787 243.908 39.984C245.444 38.7467 246.212 37.1467 246.212 35.184V25.136C246.212 23.088 245.444 21.424 243.908 20.144C242.414 18.864 240.388 18.224 237.828 18.224C235.31 18.224 233.284 18.864 231.748 20.144C230.212 21.424 229.444 23.088 229.444 25.136V35.184C229.444 37.1467 230.19 38.7467 231.684 39.984C233.22 41.1787 235.268 41.776 237.828 41.776ZM267.944 46.576C266.578 46.576 265.448 46.2773 264.552 45.68C263.656 45.04 263.037 44.1653 262.696 43.056L254.568 13.936C255.165 13.5947 255.976 13.424 257 13.424C257.938 13.424 258.728 13.6373 259.368 14.064C260.008 14.4907 260.413 15.1093 260.584 15.92L265.96 37.168L265.32 39.92L265.64 40.048L272.616 15.28C272.786 14.7253 273.106 14.2773 273.576 13.936C274.045 13.5947 274.621 13.424 275.304 13.424C275.986 13.424 276.562 13.5947 277.032 13.936C277.501 14.2773 277.821 14.7253 277.992 15.28L284.072 37.424L283.304 40.176L283.688 40.304L289.96 15.92C290.13 15.1093 290.536 14.4907 291.176 14.064C291.816 13.6373 292.605 13.424 293.544 13.424C294.568 13.424 295.378 13.5947 295.976 13.936L287.847 43.056C287.549 44.1653 286.909 45.04 285.928 45.68C284.946 46.2773 283.773 46.576 282.408 46.576L274.728 18.928L274.472 18.992L275.112 21.36L267.944 46.576ZM312.032 46.576C309.429 46.576 307.104 46.0853 305.056 45.104C303.008 44.08 301.408 42.6933 300.256 40.944C299.104 39.152 298.528 37.1467 298.528 34.928V25.456C298.528 23.1947 299.125 21.1467 300.32 19.312C301.557 17.4773 303.2 16.048 305.248 15.024C307.338 13.9573 309.6 13.424 312.032 13.424C314.464 13.424 316.682 13.936 318.688 14.96C320.736 15.984 322.336 17.392 323.488 19.184C324.682 20.976 325.28 23.0027 325.28 25.264V29.36C325.28 30.0427 325.024 30.6187 324.512 31.088C324 31.5573 323.381 31.792 322.656 31.792H303.968V34.672C303.968 36.848 304.65 38.5973 306.016 39.92C307.424 41.2427 309.429 41.904 312.032 41.904C314.634 41.904 316.618 41.328 317.984 40.176C319.349 39.024 320.032 37.4667 320.032 35.504C321.312 35.4187 322.378 35.6747 323.232 36.272C324.128 36.8267 324.576 37.6587 324.576 38.768C324.576 40.1333 323.978 41.4133 322.784 42.608C321.632 43.8027 320.096 44.7627 318.176 45.488C316.256 46.2133 314.208 46.576 312.032 46.576ZM320.096 27.44V25.264C320.096 23.1307 319.349 21.4027 317.856 20.08C316.405 18.7147 314.464 18.032 312.032 18.032C309.6 18.032 307.637 18.7147 306.144 20.08C304.693 21.4027 303.968 23.1307 303.968 25.264V27.44H320.096ZM341.948 46.576C338.833 46.576 336.508 45.7227 334.972 44.016C333.436 42.2667 332.668 39.984 332.668 37.168V4.72C332.668 3.312 333.116 2.288 334.012 1.648C334.95 0.965331 336.358 0.623997 338.236 0.623997V36.976C338.236 38.64 338.577 39.8347 339.26 40.56C339.942 41.2853 341.073 41.648 342.652 41.648C344.23 41.648 345.681 41.264 347.003 40.496C347.558 41.136 347.836 41.8827 347.836 42.736C347.836 43.76 347.302 44.656 346.236 45.424C345.169 46.192 343.74 46.576 341.948 46.576ZM362.198 46.576C359.083 46.576 356.758 45.7227 355.222 44.016C353.686 42.2667 352.918 39.984 352.918 37.168V4.72C352.918 3.312 353.366 2.288 354.262 1.648C355.2 0.965331 356.608 0.623997 358.486 0.623997V36.976C358.486 38.64 358.827 39.8347 359.51 40.56C360.192 41.2853 361.323 41.648 362.902 41.648C364.48 41.648 365.931 41.264 367.253 40.496C367.808 41.136 368.086 41.8827 368.086 42.736C368.086 43.76 367.552 44.656 366.486 45.424C365.419 46.192 363.99 46.576 362.198 46.576Z" fill="black"/>
<path d="M5.376 45.232L2.6542 48.1632L2.71246 48.2173L2.77283 48.269L5.376 45.232ZM5.312 2.032L8.02514 4.97122L8.03381 4.96317L5.312 2.032ZM32.128 3.248L33.8947 -0.340685L33.8947 -0.340686L32.128 3.248ZM38.592 9.008L35.1934 11.1175L35.2148 11.1519L35.2369 11.1859L38.592 9.008ZM38.592 38.128L35.2198 35.9767L35.2065 35.9976L35.1934 36.0185L38.592 38.128ZM32.064 43.952L33.8307 47.5407L33.8418 47.5352L33.8529 47.5297L32.064 43.952ZM31.488 37.872L34.0487 40.9449L34.0654 40.931L34.0819 40.917L31.488 37.872ZM10.496 6.448V2.448H6.496V6.448H10.496ZM10.496 40.752H6.496V44.752H10.496V40.752ZM7.552 42C7.5295 42 7.59017 41.9975 7.69928 42.036C7.81303 42.0762 7.9116 42.1371 7.97917 42.195L2.77283 48.269C4.15867 49.4569 5.83097 50 7.552 50V42ZM8.0978 42.3008C8.16308 42.3614 8.27816 42.4939 8.36863 42.7007C8.45932 42.908 8.48 43.0865 8.48 43.184H0.48C0.48 45.1139 1.24692 46.8564 2.6542 48.1632L8.0978 42.3008ZM8.48 43.184V4.016H0.48V43.184H8.48ZM8.48 4.016C8.48 4.0728 8.46865 4.23982 8.37678 4.45891C8.28214 4.68458 8.14638 4.85928 8.02512 4.97121L2.59888 -0.907214C1.1583 0.422552 0.48 2.18143 0.48 4.016H8.48ZM8.03381 4.96317C7.95672 5.03475 7.84355 5.10912 7.71275 5.1577C7.58831 5.20392 7.52051 5.2 7.552 5.2V-2.8C5.75517 -2.8 4.00345 -2.21148 2.59019 -0.899175L8.03381 4.96317ZM7.552 5.2H22.528V-2.8H7.552V5.2ZM22.528 5.2C25.6477 5.2 28.2251 5.78503 30.3613 6.83668L33.8947 -0.340686C30.4842 -2.0197 26.6617 -2.8 22.528 -2.8V5.2ZM30.3613 6.83668C32.506 7.89254 34.0768 9.3184 35.1934 11.1175L41.9906 6.89855C40.0352 3.74826 37.2967 1.33412 33.8947 -0.340685L30.3613 6.83668ZM35.2369 11.1859C36.3573 12.9119 36.96 14.9361 36.96 17.392H44.96C44.96 13.5333 43.984 9.96807 41.9471 6.83011L35.2369 11.1859ZM36.96 17.392V29.68H44.96V17.392H36.96ZM36.96 29.68C36.96 32.1352 36.3573 34.1936 35.2198 35.9767L41.9643 40.2793C43.9841 37.1131 44.96 33.5394 44.96 29.68H36.96ZM35.1934 36.0185C34.0794 37.8134 32.4847 39.2695 30.2751 40.3743L33.8529 47.5297C37.2753 45.8185 40.0326 43.3919 41.9906 40.2375L35.1934 36.0185ZM30.2973 40.3633C28.1549 41.418 25.5969 42 22.528 42V50C26.6271 50 30.4265 49.2166 33.8307 47.5407L30.2973 40.3633ZM22.528 42H7.552V50H22.528V42ZM21.888 44.752C26.5783 44.752 30.8012 43.6512 34.0487 40.9449L28.9273 34.7991C27.5668 35.9328 25.3897 36.752 21.888 36.752V44.752ZM34.0819 40.917C37.4102 38.0817 38.944 34.1864 38.944 29.744H30.944C30.944 32.2136 30.1738 33.737 28.8941 34.827L34.0819 40.917ZM38.944 29.744V17.328H30.944V29.744H38.944ZM38.944 17.328C38.944 12.9114 37.3971 9.04542 34.0487 6.25511L28.9273 12.4009C30.1869 13.4506 30.944 14.9179 30.944 17.328H38.944ZM34.0487 6.25511C30.8012 3.54881 26.5783 2.448 21.888 2.448V10.448C25.3897 10.448 27.5668 11.2672 28.9273 12.4009L34.0487 6.25511ZM21.888 2.448H10.496V10.448H21.888V2.448ZM6.496 6.448V40.752H14.496V6.448H6.496ZM10.496 44.752H21.888V36.752H10.496V44.752ZM49.3955 43.632L46.7452 46.628L46.7593 46.6405L46.7736 46.6529L49.3955 43.632ZM49.5875 28.08L52.1537 31.1483L52.17 31.1347L52.1861 31.1209L49.5875 28.08ZM68.9795 29.424L66.0237 32.119L68.846 35.2144L71.8079 32.2524L68.9795 29.424ZM69.2355 29.168L72.0639 31.9964L74.772 29.2883L72.1841 26.4651L69.2355 29.168ZM67.6355 27.568H63.6355V29.3123L64.9137 30.4992L67.6355 27.568ZM50.1635 23.344L48.3746 26.9217L51.8356 28.6522L53.6799 25.2505L50.1635 23.344ZM48.4355 22L45.1806 24.325L45.276 24.4585L45.382 24.5838L48.4355 22ZM49.5235 16.944L52.181 19.9336L52.2113 19.9066L52.2411 19.879L49.5235 16.944ZM54.0675 14.384L52.8026 10.5893L52.7897 10.5936L52.7768 10.598L54.0675 14.384ZM69.6195 16.432L66.9934 19.4492L67.0071 19.4611L67.0209 19.4729L69.6195 16.432ZM71.8595 45.552L69.3607 42.4285L69.3607 42.4285L71.8595 45.552ZM67.8275 46.576H63.8275V50.576H67.8275V46.576ZM67.8275 43.568L64.9341 40.8061L63.8275 41.9654V43.568H67.8275ZM69.2995 41.904L72.8772 43.6929L74.1665 41.1142L72.1279 39.0756L69.2995 41.904ZM69.0435 41.648L71.8719 38.8196L68.7944 35.742L65.9869 39.0678L69.0435 41.648ZM65.4595 40.496L63.1175 37.2533L63.0958 37.269L63.0742 37.285L65.4595 40.496ZM65.5235 31.216L63.0803 34.3831L63.0803 34.3831L65.5235 31.216ZM53.6195 31.216L56.1419 34.3205L56.1525 34.3118L53.6195 31.216ZM53.5555 40.56L50.985 43.6248L51.0382 43.6694L51.0929 43.7121L53.5555 40.56ZM58.2915 42.576C55.3594 42.576 53.3969 41.8084 52.0174 40.6111L46.7736 46.6529C49.9168 49.3809 53.8849 50.576 58.2915 50.576V42.576ZM52.0458 40.636C50.7601 39.4987 50.0675 38.0458 50.0675 35.888H42.0675C42.0675 40.1302 43.5936 43.84 46.7452 46.628L52.0458 40.636ZM50.0675 35.888C50.0675 33.7487 50.7763 32.3004 52.1537 31.1483L47.0213 25.0117C43.7054 27.785 42.0675 31.5419 42.0675 35.888H50.0675ZM52.1861 31.1209C53.6445 29.8746 55.7399 29.072 58.8675 29.072V21.072C54.3151 21.072 50.2238 22.2747 46.9889 25.0391L52.1861 31.1209ZM58.8675 29.072C61.8936 29.072 64.1726 30.0888 66.0237 32.119L71.9353 26.729C68.4958 22.9566 64.0334 21.072 58.8675 21.072V29.072ZM71.8079 32.2524L72.0639 31.9964L66.4071 26.3396L66.1511 26.5956L71.8079 32.2524ZM72.1841 26.4651C71.6311 25.8619 71.0202 25.2524 70.3573 24.6368L64.9137 30.4992C65.4455 30.993 65.9012 31.4501 66.2869 31.8709L72.1841 26.4651ZM71.6355 27.568V24.88H63.6355V27.568H71.6355ZM71.6355 24.88C71.6355 21.8022 70.6279 18.9193 68.2215 16.8137L62.9535 22.8343C63.2778 23.1181 63.6355 23.6058 63.6355 24.88H71.6355ZM68.2215 16.8137C65.8872 14.7711 62.8748 14.032 59.7635 14.032V22.032C61.6869 22.032 62.5572 22.4875 62.9535 22.8343L68.2215 16.8137ZM59.7635 14.032C56.9971 14.032 54.3791 14.5806 52.0669 15.8601C49.7321 17.152 47.9326 19.0664 46.6471 21.4375L53.6799 25.2505C54.3144 24.0802 55.0749 23.3387 55.9401 22.8599C56.8279 22.3687 58.0499 22.032 59.7635 22.032V14.032ZM51.9524 19.7663C51.7293 19.6548 51.5909 19.5366 51.489 19.4162L45.382 24.5838C46.2187 25.5727 47.2324 26.3506 48.3746 26.9217L51.9524 19.7663ZM51.6904 19.675C51.6593 19.6314 51.6869 19.659 51.7225 19.7587C51.7604 19.8649 51.7955 20.0205 51.7955 20.208H43.7955C43.7955 21.8138 44.3819 23.2068 45.1806 24.325L51.6904 19.675ZM51.7955 20.208C51.7955 20.2573 51.7888 20.308 51.7775 20.3522C51.7664 20.3952 51.7561 20.4119 51.7627 20.3995C51.7788 20.369 51.8755 20.2051 52.181 19.9336L46.866 13.9544C45.1636 15.4677 43.7955 17.5621 43.7955 20.208H51.7955ZM52.2411 19.879C52.8892 19.2789 53.876 18.6753 55.3582 18.17L52.7768 10.598C50.5044 11.3727 48.4618 12.4757 46.8059 14.009L52.2411 19.879ZM55.3324 18.1787C56.8311 17.6792 58.4084 17.424 60.0835 17.424V9.424C57.5773 9.424 55.1439 9.80885 52.8026 10.5893L55.3324 18.1787ZM60.0835 17.424C63.4916 17.424 65.6273 18.2602 66.9934 19.4492L72.2456 13.4148C69.0037 10.5932 64.782 9.424 60.0835 9.424V17.424ZM67.0209 19.4729C68.3421 20.6019 69.1395 22.1886 69.1395 24.752H77.1395C77.1395 20.2327 75.5903 16.2727 72.2181 13.3911L67.0209 19.4729ZM69.1395 24.752V42.288H77.1395V24.752H69.1395ZM69.1395 42.288C69.1395 42.6677 69.0836 42.7943 69.0956 42.7636C69.1033 42.7439 69.1273 42.6905 69.1778 42.6206C69.2292 42.5495 69.2925 42.4831 69.3607 42.4285L74.3583 48.6755C76.477 46.9805 77.1395 44.5232 77.1395 42.288H69.1395ZM69.3607 42.4285C69.482 42.3315 69.4898 42.3763 69.2269 42.4431C68.961 42.5106 68.5127 42.576 67.8275 42.576V50.576C70.0067 50.576 72.4543 50.1986 74.3583 48.6755L69.3607 42.4285ZM71.8275 46.576V43.568H63.8275V46.576H71.8275ZM70.7209 46.3299C71.1821 45.8467 71.5689 45.4313 71.8635 45.0983C72.0089 44.9339 72.1579 44.7603 72.2919 44.5915C72.3616 44.5038 72.6498 44.1477 72.8772 43.6929L65.7218 40.1151C65.8388 39.8811 65.949 39.7244 65.9716 39.6921C66.0092 39.6384 66.032 39.6103 66.0271 39.6165C66.0171 39.6291 65.9714 39.6848 65.8715 39.7977C65.6755 40.0193 65.3689 40.3506 64.9341 40.8061L70.7209 46.3299ZM72.1279 39.0756L71.8719 38.8196L66.2151 44.4764L66.4711 44.7324L72.1279 39.0756ZM65.9869 39.0678C63.9928 41.43 61.538 42.576 58.2915 42.576V50.576C63.8343 50.576 68.5475 48.4366 72.1001 44.2282L65.9869 39.0678ZM59.2515 46.16C62.4047 46.16 65.4249 45.5046 67.8448 43.707L63.0742 37.285C62.5075 37.706 61.389 38.16 59.2515 38.16V46.16ZM67.8015 43.7387C70.4221 41.8461 71.7635 39.0806 71.7635 35.888H63.7635C63.7635 36.6207 63.5689 36.9273 63.1175 37.2533L67.8015 43.7387ZM71.7635 35.888C71.7635 32.7441 70.4874 29.9934 67.9667 28.0489L63.0803 34.3831C63.5463 34.7426 63.7635 35.1065 63.7635 35.888H71.7635ZM67.9667 28.0489C65.5503 26.1848 62.5356 25.488 59.3795 25.488V33.488C61.4287 33.488 62.5101 33.9432 63.0803 34.3831L67.9667 28.0489ZM59.3795 25.488C56.3361 25.488 53.4182 26.2125 51.0865 28.1202L56.1525 34.3118C56.6368 33.9155 57.5589 33.488 59.3795 33.488V25.488ZM51.0971 28.1115C48.659 30.0925 47.5715 32.8679 47.5715 35.888H55.5715C55.5715 34.8974 55.8493 34.5582 56.1419 34.3205L51.0971 28.1115ZM47.5715 35.888C47.5715 38.8632 48.6049 41.6285 50.985 43.6248L56.126 37.4952C55.8608 37.2728 55.5715 36.9235 55.5715 35.888H47.5715ZM51.0929 43.7121C53.3966 45.5119 56.28 46.16 59.2515 46.16V38.16C57.359 38.16 56.4451 37.7415 56.0181 37.4079L51.0929 43.7121ZM90.6935 46.064L92.9123 42.7358L90.6935 46.064ZM89.6055 44.784L85.8884 46.2616L85.9006 46.2921L85.9132 46.3225L89.6055 44.784ZM77.3175 13.872L75.5287 10.2943L72.2437 11.9367L73.6004 15.3496L77.3175 13.872ZM78.4055 13.552L77.69 9.61652L77.6899 9.61652L78.4055 13.552ZM82.1815 14.064L80.1534 17.5117L82.1815 14.064ZM83.6535 15.92L79.8392 17.1245L79.8672 17.2132L79.8992 17.3004L83.6535 15.92ZM92.1015 38.896L95.8769 40.2174L96.3511 38.8627L95.8558 37.5156L92.1015 38.896ZM91.2055 41.456L87.4301 40.1346L86.1654 43.7481L89.7199 45.1699L91.2055 41.456ZM91.5255 41.584L90.0399 45.2979L93.8386 46.8174L95.272 42.9854L91.5255 41.584ZM101.126 15.92L104.872 17.3214L104.908 17.2239L104.94 17.1245L101.126 15.92ZM102.598 14.064L104.626 17.5117L104.626 17.5117L102.598 14.064ZM106.31 13.552L107.025 9.61652L107.025 9.61652L106.31 13.552ZM107.462 13.872L111.179 15.3496L112.618 11.7298L109.037 10.1954L107.462 13.872ZM95.1735 44.784L98.8658 46.3225L98.8784 46.2921L98.8906 46.2616L95.1735 44.784ZM94.0855 46.064L91.8667 42.7358L91.7988 42.7811L91.7328 42.8291L94.0855 46.064ZM92.4215 42.576C92.4611 42.576 92.5416 42.5819 92.6459 42.6128C92.7513 42.6441 92.8431 42.6897 92.9123 42.7358L88.4747 49.3922C89.6711 50.1898 91.0253 50.576 92.4215 50.576V42.576ZM92.9123 42.7358C92.9353 42.7511 93.0034 42.8011 93.0853 42.8974C93.1693 42.9963 93.2438 43.1159 93.2978 43.2455L85.9132 46.3225C86.463 47.6421 87.3803 48.6626 88.4747 49.3922L92.9123 42.7358ZM93.3226 43.3064L81.0346 12.3944L73.6004 15.3496L85.8884 46.2616L93.3226 43.3064ZM79.1063 17.4497C79.069 17.4684 79.0369 17.4831 79.0109 17.4944C78.9848 17.5057 78.9637 17.5141 78.9481 17.52C78.9178 17.5315 78.9039 17.5353 78.9102 17.5335C78.9161 17.5317 78.9363 17.526 78.9729 17.5176C79.0094 17.5092 79.0583 17.4989 79.1211 17.4875L77.6899 9.61652C77.0605 9.73096 76.2742 9.92154 75.5287 10.2943L79.1063 17.4497ZM79.121 17.4875C79.4084 17.4352 79.5908 17.424 79.6855 17.424V9.424C79.0122 9.424 78.3413 9.49809 77.69 9.61652L79.121 17.4875ZM79.6855 17.424C79.9954 17.424 80.1117 17.4872 80.1534 17.5117L84.2096 10.6163C82.8007 9.7875 81.253 9.424 79.6855 9.424V17.424ZM80.1534 17.5117C80.1195 17.4918 80.0401 17.4352 79.9595 17.3336C79.8794 17.2326 79.8467 17.1483 79.8392 17.1245L87.4678 14.7155C86.9175 12.9727 85.7967 11.5499 84.2096 10.6163L80.1534 17.5117ZM79.8992 17.3004L88.3472 40.2764L95.8558 37.5156L87.4078 14.5396L79.8992 17.3004ZM88.3261 37.5746L87.4301 40.1346L94.9809 42.7774L95.8769 40.2174L88.3261 37.5746ZM89.7199 45.1699L90.0399 45.2979L93.0111 37.8701L92.6911 37.7421L89.7199 45.1699ZM95.272 42.9854L104.872 17.3214L97.379 14.5186L87.779 40.1826L95.272 42.9854ZM104.94 17.1245C104.932 17.1483 104.9 17.2325 104.819 17.3336C104.739 17.4352 104.659 17.4918 104.626 17.5117L100.569 10.6163C98.9823 11.5499 97.8615 12.9727 97.3112 14.7155L104.94 17.1245ZM104.626 17.5117C104.696 17.4702 104.799 17.424 105.03 17.424V9.424C103.468 9.424 101.95 9.80445 100.569 10.6163L104.626 17.5117ZM105.03 17.424C105.124 17.424 105.307 17.4352 105.594 17.4875L107.025 9.61652C106.374 9.49809 105.703 9.424 105.03 9.424V17.424ZM105.594 17.4875C105.732 17.5125 105.824 17.5348 105.879 17.5501C105.936 17.5658 105.933 17.5686 105.886 17.5486L109.037 10.1954C108.367 9.9081 107.666 9.73307 107.025 9.61652L105.594 17.4875ZM103.744 12.3944L91.4564 43.3064L98.8906 46.2616L111.179 15.3496L103.744 12.3944ZM91.4812 43.2455C91.5352 43.1159 91.6097 42.9963 91.6937 42.8974C91.7756 42.8011 91.8437 42.7511 91.8667 42.7358L96.3043 49.3922C97.3987 48.6626 98.316 47.6421 98.8658 46.3225L91.4812 43.2455ZM91.7328 42.8291C91.8551 42.7401 91.9966 42.6694 92.1412 42.6249C92.2819 42.5816 92.3834 42.576 92.4215 42.576V50.576C93.8155 50.576 95.2148 50.1887 96.4382 49.2989L91.7328 42.8291ZM114.384 7.472L117.134 4.56819L117.134 4.56818L114.384 7.472ZM114.384 1.776L117.051 4.75696L117.093 4.71898L117.134 4.67981L114.384 1.776ZM120.336 1.776L117.585 4.67981L117.626 4.71898L117.668 4.75696L120.336 1.776ZM120.336 7.472L117.585 4.56818L117.585 4.56819L120.336 7.472ZM115.92 14.448L118.244 17.7029L118.258 17.693L118.272 17.6829L115.92 14.448ZM120.144 13.424H124.144V9.424H120.144V13.424ZM118.736 45.616L121.06 48.8709L121.074 48.861L121.088 48.8509L118.736 45.616ZM114.576 46.576H110.576V50.576H114.576V46.576ZM117.392 4.624C117.307 4.624 117.252 4.61728 117.22 4.61171C117.189 4.60627 117.175 4.6011 117.174 4.60057C117.173 4.60017 117.174 4.60051 117.172 4.59972C117.171 4.59872 117.158 4.59058 117.134 4.56819L111.633 10.3758C113.241 11.8999 115.252 12.624 117.392 12.624V4.624ZM117.134 4.56818C117.114 4.54866 117.113 4.54465 117.123 4.55802C117.127 4.56429 117.133 4.57317 117.139 4.58442C117.145 4.5957 117.151 4.60777 117.156 4.62011C117.162 4.63243 117.166 4.64332 117.168 4.65203C117.171 4.6607 117.172 4.66566 117.172 4.66608C117.172 4.66749 117.168 4.64484 117.168 4.592H109.168C109.168 6.8032 109.996 8.82589 111.633 10.3758L117.134 4.56818ZM117.168 4.592C117.168 4.53889 117.172 4.52032 117.17 4.52933C117.168 4.53947 117.161 4.56886 117.144 4.60974C117.126 4.65104 117.104 4.68917 117.081 4.72006C117.059 4.75031 117.045 4.76191 117.051 4.75696L111.716 -1.20497C110.003 0.328397 109.168 2.37794 109.168 4.592H117.168ZM117.134 4.67981C117.158 4.65741 117.171 4.64927 117.172 4.64828C117.174 4.64749 117.173 4.64782 117.174 4.64742C117.175 4.64689 117.189 4.64172 117.22 4.63628C117.252 4.63072 117.307 4.624 117.392 4.624V-3.376C115.252 -3.376 113.241 -2.65187 111.633 -1.12781L117.134 4.67981ZM117.392 4.624C117.457 4.624 117.496 4.62937 117.515 4.63273C117.533 4.63597 117.538 4.6384 117.534 4.63697C117.53 4.63548 117.529 4.63429 117.532 4.63671C117.537 4.63941 117.554 4.65119 117.585 4.67981L123.086 -1.12781C121.507 -2.62399 119.531 -3.376 117.392 -3.376V4.624ZM117.668 4.75696C117.674 4.76191 117.66 4.75031 117.638 4.72006C117.615 4.68917 117.593 4.65104 117.575 4.60974C117.558 4.56886 117.551 4.53947 117.549 4.52933C117.547 4.52032 117.552 4.53889 117.552 4.592H125.552C125.552 2.37794 124.716 0.328398 123.003 -1.20497L117.668 4.75696ZM117.552 4.592C117.552 4.64484 117.547 4.66749 117.547 4.66608C117.547 4.66566 117.548 4.6607 117.551 4.65203C117.553 4.64332 117.557 4.63243 117.563 4.62011C117.568 4.60777 117.574 4.5957 117.58 4.58443C117.586 4.57317 117.592 4.56429 117.596 4.55802C117.606 4.54465 117.605 4.54866 117.585 4.56818L123.086 10.3758C124.723 8.82589 125.552 6.8032 125.552 4.592H117.552ZM117.585 4.56819C117.554 4.5968 117.537 4.60858 117.532 4.61128C117.529 4.61371 117.53 4.61252 117.534 4.61103C117.538 4.6096 117.533 4.61202 117.515 4.61526C117.496 4.61863 117.457 4.624 117.392 4.624V12.624C119.531 12.624 121.507 11.872 123.086 10.3758L117.585 4.56819ZM118.576 17.52C118.576 17.2294 118.623 17.1926 118.576 17.2993C118.552 17.3552 118.509 17.4317 118.443 17.5133C118.377 17.5953 118.306 17.6587 118.244 17.7029L113.595 11.1931C111.359 12.7895 110.576 15.22 110.576 17.52H118.576ZM118.272 17.6829C118.228 17.7152 118.304 17.6444 118.622 17.5674C118.942 17.4898 119.434 17.424 120.144 17.424V9.424C117.9 9.424 115.495 9.81058 113.567 11.2131L118.272 17.6829ZM116.144 13.424V42.48H124.144V13.424H116.144ZM116.144 42.48C116.144 42.7453 116.099 42.778 116.142 42.6816C116.164 42.6332 116.2 42.5718 116.251 42.5093C116.301 42.4471 116.35 42.4048 116.383 42.3811L121.088 48.8509C123.287 47.2515 124.144 44.8605 124.144 42.48H116.144ZM116.411 42.3611C116.496 42.2999 116.448 42.3637 116.124 42.4384C115.802 42.5128 115.301 42.576 114.576 42.576V50.576C116.76 50.576 119.156 50.2312 121.06 48.8709L116.411 42.3611ZM118.576 46.576V17.52H110.576V46.576H118.576ZM133.295 43.568L130.609 46.5328L130.639 46.5593L130.668 46.5852L133.295 43.568ZM131.503 18.736L134.87 20.8947L134.882 20.8754L134.894 20.856L131.503 18.736ZM135.919 14.832L137.641 18.4419L137.658 18.4338L137.675 18.4255L135.919 14.832ZM148.079 14.704L146.29 18.2817L146.326 18.2998L146.362 18.3171L148.079 14.704ZM152.559 17.968L149.64 20.7038L153.263 24.5681L155.988 20.026L152.559 17.968ZM152.751 17.648L156.18 19.706L157.516 17.4804L156.027 15.3541L152.751 17.648ZM151.407 16.24H147.407V18.0797L148.803 19.277L151.407 16.24ZM152.815 1.776L155.26 4.94113L155.304 4.90709L155.347 4.87183L152.815 1.776ZM157.039 0.623997H161.039V-3.376H157.039V0.623997ZM155.759 45.36L153.004 42.46L152.966 42.4953L152.93 42.5316L155.759 45.36ZM151.791 46.576H147.791V50.576H151.791V46.576ZM151.791 42.992L148.633 40.5362L147.791 41.6196V42.992H151.791ZM153.007 41.328L156.398 43.448L157.852 41.1222L156.206 38.928L153.007 41.328ZM152.815 41.072L156.014 38.672L152.917 34.5414L149.691 38.5732L152.815 41.072ZM148.271 45.104L146.239 41.6585L146.239 41.6585L148.271 45.104ZM149.167 39.92L151.567 43.12L151.595 43.0989L151.622 43.0774L149.167 39.92ZM149.295 20.144L146.752 23.2317L146.779 23.2543L146.807 23.2764L149.295 20.144ZM137.519 20.08L140.041 23.1845L140.051 23.1758L137.519 20.08ZM137.519 39.984L134.996 43.0885L135.019 43.1074L135.043 43.126L137.519 39.984ZM142.255 42.576C139.347 42.576 137.356 41.8004 135.921 40.5508L130.668 46.5852C133.841 49.3463 137.824 50.576 142.255 50.576V42.576ZM135.98 40.6032C134.649 39.3978 133.903 37.8131 133.903 35.44H125.903C125.903 39.8082 127.418 43.6422 130.609 46.5328L135.98 40.6032ZM133.903 35.44V24.496H125.903V35.44H133.903ZM133.903 24.496C133.903 23.0052 134.258 21.8502 134.87 20.8947L128.135 16.5773C126.614 18.9498 125.903 21.6348 125.903 24.496H133.903ZM134.894 20.856C135.544 19.8171 136.427 19.0218 137.641 18.4419L134.196 11.2221C131.656 12.4342 129.595 14.2416 128.111 16.616L134.894 20.856ZM137.675 18.4255C138.968 17.7935 140.549 17.424 142.51 17.424V9.424C139.523 9.424 136.709 9.99314 134.162 11.2385L137.675 18.4255ZM142.51 17.424C143.927 17.424 145.167 17.7203 146.29 18.2817L149.867 11.1263C147.577 9.98105 145.104 9.424 142.51 9.424V17.424ZM146.362 18.3171C147.621 18.9152 148.706 19.707 149.64 20.7038L155.477 15.2322C153.851 13.4983 151.949 12.1141 149.795 11.0909L146.362 18.3171ZM155.988 20.026L156.18 19.706L149.321 15.59L149.129 15.91L155.988 20.026ZM156.027 15.3541C155.465 14.5508 154.746 13.8344 154.01 13.203L148.803 19.277C149.261 19.6696 149.439 19.8919 149.474 19.9418L156.027 15.3541ZM155.407 16.24V4.976H147.407V16.24H155.407ZM155.407 4.976C155.407 4.71353 155.45 4.66237 155.42 4.73095C155.405 4.76456 155.38 4.80933 155.344 4.85528C155.308 4.90095 155.276 4.92918 155.26 4.94113L150.369 -1.38914C148.261 0.239491 147.407 2.58901 147.407 4.976H155.407ZM155.347 4.87183C155.272 4.93353 155.605 4.624 157.039 4.624V-3.376C154.718 -3.376 152.234 -2.91754 150.282 -1.31983L155.347 4.87183ZM153.039 0.623997V42.032H161.039V0.623997H153.039ZM153.039 42.032C153.039 42.3338 152.993 42.4637 152.985 42.4841C152.981 42.4946 152.982 42.4897 152.99 42.4772C152.999 42.4646 153.005 42.4582 153.004 42.46L158.513 48.26C160.316 46.5478 161.039 44.304 161.039 42.032H153.039ZM152.93 42.5316C153.074 42.3881 153.151 42.3972 152.986 42.4476C152.806 42.503 152.432 42.576 151.791 42.576V50.576C154.073 50.576 156.682 50.0931 158.587 48.1884L152.93 42.5316ZM155.791 46.576V42.992H147.791V46.576H155.791ZM154.948 45.4478C155.545 44.6801 156.065 43.9815 156.398 43.448L149.615 39.208C149.521 39.3572 149.231 39.7679 148.633 40.5362L154.948 45.4478ZM156.206 38.928L156.014 38.672L149.615 43.472L149.807 43.728L156.206 38.928ZM149.691 38.5732C148.59 39.9501 147.433 40.9541 146.239 41.6585L150.302 48.5495C152.436 47.2912 154.309 45.6073 155.938 43.5708L149.691 38.5732ZM146.239 41.6585C145.31 42.2061 144.04 42.576 142.255 42.576V50.576C145.163 50.576 147.903 49.9645 150.302 48.5495L146.239 41.6585ZM143.471 45.648C146.438 45.648 149.221 44.8793 151.567 43.12L146.767 36.72C146.04 37.2647 145.026 37.648 143.471 37.648V45.648ZM151.622 43.0774C154.007 41.2222 155.471 38.638 155.471 35.504H147.471C147.471 35.8687 147.398 36.2284 146.711 36.7626L151.622 43.0774ZM155.471 35.504V24.432H147.471V35.504H155.471ZM155.471 24.432C155.471 21.3904 154.095 18.848 151.782 17.0116L146.807 23.2764C147.396 23.7439 147.471 24.0602 147.471 24.432H155.471ZM151.837 17.0563C149.471 15.1074 146.512 14.352 143.407 14.352V22.352C145.25 22.352 146.217 22.7913 146.752 23.2317L151.837 17.0563ZM143.407 14.352C140.317 14.352 137.339 15.0583 134.986 16.9842L140.051 23.1758C140.514 22.7977 141.462 22.352 143.407 22.352V14.352ZM134.996 16.9755C132.558 18.9565 131.47 21.7319 131.47 24.752H139.47C139.47 23.7614 139.748 23.4222 140.041 23.1845L134.996 16.9755ZM131.47 24.752V35.184H139.47V24.752H131.47ZM131.47 35.184C131.47 38.2269 132.516 41.0736 134.996 43.0885L140.041 36.8795C139.79 36.6757 139.47 36.3224 139.47 35.184H131.47ZM135.043 43.126C137.403 44.9854 140.387 45.648 143.471 45.648V37.648C141.434 37.648 140.45 37.2012 139.994 36.842L135.043 43.126ZM183.376 45.232L180.654 48.1632L180.712 48.2173L180.773 48.269L183.376 45.232ZM183.312 2.032L186.025 4.97122L186.034 4.96317L183.312 2.032ZM210.128 3.248L211.895 -0.340685L211.895 -0.340686L210.128 3.248ZM216.592 9.008L213.193 11.1175L213.215 11.1519L213.237 11.1859L216.592 9.008ZM216.592 38.128L213.22 35.9767L213.206 35.9976L213.193 36.0185L216.592 38.128ZM210.064 43.952L211.831 47.5407L211.842 47.5352L211.853 47.5297L210.064 43.952ZM209.488 37.872L212.049 40.9449L212.065 40.931L212.082 40.917L209.488 37.872ZM188.496 6.448V2.448H184.496V6.448H188.496ZM188.496 40.752H184.496V44.752H188.496V40.752ZM185.552 42C185.529 42 185.59 41.9975 185.699 42.036C185.813 42.0762 185.912 42.1371 185.979 42.195L180.773 48.269C182.159 49.4569 183.831 50 185.552 50V42ZM186.098 42.3008C186.163 42.3614 186.278 42.4939 186.369 42.7007C186.459 42.908 186.48 43.0865 186.48 43.184H178.48C178.48 45.1139 179.247 46.8564 180.654 48.1632L186.098 42.3008ZM186.48 43.184V4.016H178.48V43.184H186.48ZM186.48 4.016C186.48 4.0728 186.469 4.23982 186.377 4.45891C186.282 4.68458 186.146 4.85928 186.025 4.97121L180.599 -0.907214C179.158 0.422552 178.48 2.18143 178.48 4.016H186.48ZM186.034 4.96317C185.957 5.03475 185.844 5.10912 185.713 5.1577C185.588 5.20392 185.521 5.2 185.552 5.2V-2.8C183.755 -2.8 182.003 -2.21148 180.59 -0.899175L186.034 4.96317ZM185.552 5.2H200.528V-2.8H185.552V5.2ZM200.528 5.2C203.648 5.2 206.225 5.78503 208.361 6.83668L211.895 -0.340686C208.484 -2.0197 204.662 -2.8 200.528 -2.8V5.2ZM208.361 6.83668C210.506 7.89254 212.077 9.3184 213.193 11.1175L219.991 6.89855C218.035 3.74826 215.297 1.33412 211.895 -0.340685L208.361 6.83668ZM213.237 11.1859C214.357 12.9119 214.96 14.9361 214.96 17.392H222.96C222.96 13.5333 221.984 9.96807 219.947 6.83011L213.237 11.1859ZM214.96 17.392V29.68H222.96V17.392H214.96ZM214.96 29.68C214.96 32.1352 214.357 34.1936 213.22 35.9767L219.964 40.2793C221.984 37.1131 222.96 33.5394 222.96 29.68H214.96ZM213.193 36.0185C212.079 37.8134 210.485 39.2695 208.275 40.3743L211.853 47.5297C215.275 45.8185 218.033 43.3919 219.991 40.2375L213.193 36.0185ZM208.297 40.3633C206.155 41.418 203.597 42 200.528 42V50C204.627 50 208.426 49.2166 211.831 47.5407L208.297 40.3633ZM200.528 42H185.552V50H200.528V42ZM199.888 44.752C204.578 44.752 208.801 43.6512 212.049 40.9449L206.927 34.7991C205.567 35.9328 203.39 36.752 199.888 36.752V44.752ZM212.082 40.917C215.41 38.0817 216.944 34.1864 216.944 29.744H208.944C208.944 32.2136 208.174 33.737 206.894 34.827L212.082 40.917ZM216.944 29.744V17.328H208.944V29.744H216.944ZM216.944 17.328C216.944 12.9114 215.397 9.04542 212.049 6.25511L206.927 12.4009C208.187 13.4506 208.944 14.9179 208.944 17.328H216.944ZM212.049 6.25511C208.801 3.54881 204.578 2.448 199.888 2.448V10.448C203.39 10.448 205.567 11.2672 206.927 12.4009L212.049 6.25511ZM199.888 2.448H188.496V10.448H199.888V2.448ZM184.496 6.448V40.752H192.496V6.448H184.496ZM188.496 44.752H199.888V36.752H188.496V44.752ZM230.724 45.104L229.024 48.7249L229.038 48.7315L229.052 48.738L230.724 45.104ZM225.796 41.136L222.48 43.3739L222.512 43.4218L222.546 43.4688L225.796 41.136ZM225.796 19.12L222.492 16.8642L222.473 16.8919L222.455 16.92L225.796 19.12ZM230.724 14.96L228.964 11.3677L228.964 11.3677L230.724 14.96ZM244.932 14.96L243.172 18.5523L243.186 18.5592L243.201 18.5661L244.932 14.96ZM249.86 19.12L246.519 21.32L246.537 21.3481L246.556 21.3758L249.86 19.12ZM249.86 41.136L253.109 43.4688L253.123 43.4494L253.136 43.4298L249.86 41.136ZM244.932 45.104L243.232 41.4831L244.932 45.104ZM243.908 39.984L246.406 43.1075L246.417 43.099L243.908 39.984ZM243.908 20.144L241.304 23.181L241.325 23.1991L241.347 23.2169L243.908 20.144ZM231.684 39.984L229.131 43.0641L229.179 43.1035L229.228 43.1414L231.684 39.984ZM237.828 42.576C235.739 42.576 233.95 42.1852 232.395 41.47L229.052 48.738C231.764 49.9855 234.711 50.576 237.828 50.576V42.576ZM232.423 41.4831C230.87 40.7542 229.793 39.8449 229.045 38.8032L222.546 43.4688C224.188 45.7551 226.395 47.4911 229.024 48.7249L232.423 41.4831ZM229.111 38.8981C228.412 37.8632 228.068 36.7462 228.068 35.44H220.068C220.068 38.3152 220.875 40.9955 222.48 43.3739L229.111 38.8981ZM228.068 35.44V24.944H220.068V35.44H228.068ZM228.068 24.944C228.068 23.5773 228.423 22.4035 229.136 21.32L222.455 16.92C220.864 19.3352 220.068 22.044 220.068 24.944H228.068ZM229.099 21.3758C229.865 20.2534 230.951 19.3027 232.483 18.5523L228.964 11.3677C226.315 12.6653 224.115 14.488 222.492 16.8642L229.099 21.3758ZM232.483 18.5523C233.956 17.831 235.709 17.424 237.828 17.424V9.424C234.656 9.424 231.673 10.041 228.964 11.3677L232.483 18.5523ZM237.828 17.424C239.946 17.424 241.699 17.831 243.172 18.5523L246.691 11.3677C243.982 10.041 240.999 9.424 237.828 9.424V17.424ZM243.201 18.5661C244.767 19.3178 245.816 20.2524 246.519 21.32L253.2 16.92C251.599 14.489 249.363 12.6502 246.662 11.3539L243.201 18.5661ZM246.556 21.3758C247.294 22.4555 247.652 23.6095 247.652 24.944H255.652C255.652 22.0118 254.815 19.2832 253.163 16.8642L246.556 21.3758ZM247.652 24.944V35.44H255.652V24.944H247.652ZM247.652 35.44C247.652 36.7131 247.305 37.8104 246.583 38.8422L253.136 43.4298C254.804 41.0483 255.652 38.3482 255.652 35.44H247.652ZM246.61 38.8032C245.862 39.8449 244.785 40.7542 243.232 41.4831L246.631 48.7249C249.26 47.4911 251.467 45.7551 253.109 43.4688L246.61 38.8032ZM243.232 41.4831C241.745 42.1808 239.971 42.576 237.828 42.576V50.576C240.975 50.576 243.936 49.9898 246.631 48.7249L243.232 41.4831ZM237.828 45.776C240.988 45.776 243.996 45.0357 246.406 43.1075L241.409 36.8605C240.832 37.3216 239.787 37.776 237.828 37.776V45.776ZM246.417 43.099C248.89 41.1068 250.212 38.364 250.212 35.184H242.212C242.212 35.9293 241.997 36.3866 241.398 36.869L246.417 43.099ZM250.212 35.184V25.136H242.212V35.184H250.212ZM250.212 25.136C250.212 21.9342 248.941 19.1322 246.468 17.0711L241.347 23.2169C241.946 23.7158 242.212 24.2418 242.212 25.136H250.212ZM246.511 17.107C244.097 15.0381 241.049 14.224 237.828 14.224V22.224C239.726 22.224 240.731 22.6899 241.304 23.181L246.511 17.107ZM237.828 14.224C234.623 14.224 231.612 15.0501 229.187 17.0711L234.308 23.2169C234.955 22.6779 235.997 22.224 237.828 22.224V14.224ZM229.187 17.0711C226.714 19.1322 225.444 21.9342 225.444 25.136H233.444C233.444 24.2418 233.709 23.7158 234.308 23.2169L229.187 17.0711ZM225.444 25.136V35.184H233.444V25.136H225.444ZM225.444 35.184C225.444 38.3211 226.708 41.0563 229.131 43.0641L234.236 36.9039C233.672 36.437 233.444 35.9722 233.444 35.184H225.444ZM229.228 43.1414C231.66 45.0329 234.659 45.776 237.828 45.776V37.776C235.876 37.776 234.779 37.3245 234.139 36.8266L229.228 43.1414ZM267.944 46.576V50.576H270.965L271.791 47.6697L267.944 46.576ZM264.552 45.68L262.227 48.9349L262.279 48.9724L262.333 49.0082L264.552 45.68ZM262.696 43.056L258.843 44.1314L258.857 44.1821L258.872 44.2323L262.696 43.056ZM254.568 13.936L252.583 10.463L249.877 12.0094L250.715 15.0114L254.568 13.936ZM260.584 15.92L256.669 16.744L256.686 16.823L256.706 16.9011L260.584 15.92ZM265.96 37.168L269.856 38.0741L270.075 37.1282L269.837 36.1869L265.96 37.168ZM265.32 39.92L261.423 39.0139L260.646 42.3586L263.834 43.6339L265.32 39.92ZM265.64 40.048L264.154 43.7619L268.284 45.4139L269.49 41.1324L265.64 40.048ZM272.616 15.28L268.792 14.1037L268.778 14.1495L268.765 14.1956L272.616 15.28ZM273.576 13.936L271.223 10.701L271.223 10.7011L273.576 13.936ZM277.032 13.936L279.384 10.7011L279.384 10.701L277.032 13.936ZM277.992 15.28L281.849 14.2209L281.833 14.162L281.815 14.1037L277.992 15.28ZM284.072 37.424L287.924 38.4992L288.222 37.4327L287.929 36.3649L284.072 37.424ZM283.304 40.176L279.451 39.1008L278.428 42.7671L282.039 43.9707L283.304 40.176ZM283.688 40.304L282.423 44.0987L286.493 45.4554L287.561 41.3004L283.688 40.304ZM289.96 15.92L293.833 16.9164L293.855 16.8307L293.874 16.744L289.96 15.92ZM295.976 13.936L299.828 15.0114L300.666 12.0094L297.96 10.463L295.976 13.936ZM287.847 43.056L283.995 41.9806L283.99 41.9983L283.985 42.0161L287.847 43.056ZM285.928 45.68L288.007 49.0968L288.06 49.0644L288.113 49.0304L285.928 45.68ZM282.408 46.576L278.553 47.6466L279.367 50.576H282.408V46.576ZM274.728 18.928L278.582 17.8574L277.538 14.1022L273.757 15.0474L274.728 18.928ZM274.472 18.992L273.501 15.1114L269.546 16.1002L270.61 20.0356L274.472 18.992ZM275.112 21.36L278.959 22.4537L279.262 21.387L278.973 20.3164L275.112 21.36ZM267.944 42.576C267.157 42.576 266.853 42.4071 266.77 42.3518L262.333 49.0082C264.042 50.1475 265.999 50.576 267.944 50.576V42.576ZM266.876 42.4251C266.734 42.3237 266.617 42.1991 266.519 41.8797L258.872 44.2323C259.457 46.1315 260.577 47.7563 262.227 48.9349L266.876 42.4251ZM266.548 41.9806L258.42 12.8606L250.715 15.0114L258.843 44.1314L266.548 41.9806ZM256.552 17.409C256.424 17.4821 256.369 17.4827 256.448 17.4662C256.527 17.4494 256.702 17.424 257 17.424V9.424C255.595 9.424 254.01 9.64779 252.583 10.463L256.552 17.409ZM257 17.424C257.167 17.424 257.243 17.4431 257.252 17.4455C257.256 17.4465 257.246 17.444 257.225 17.4347C257.204 17.4253 257.177 17.4113 257.149 17.3922L261.586 10.7358C260.157 9.78286 258.552 9.424 257 9.424V17.424ZM257.149 17.3922C257.039 17.3188 256.91 17.1996 256.806 17.0401C256.704 16.8857 256.674 16.7679 256.669 16.744L264.498 15.096C264.13 13.3478 263.169 11.7907 261.586 10.7358L257.149 17.3922ZM256.706 16.9011L262.082 38.1491L269.837 36.1869L264.461 14.9389L256.706 16.9011ZM262.063 36.2619L261.423 39.0139L269.216 40.8261L269.856 38.0741L262.063 36.2619ZM263.834 43.6339L264.154 43.7619L267.125 36.3341L266.805 36.2061L263.834 43.6339ZM269.49 41.1324L276.466 16.3644L268.765 14.1956L261.789 38.9636L269.49 41.1324ZM276.439 16.4563C276.404 16.5676 276.342 16.7086 276.238 16.8529C276.135 16.9973 276.022 17.1025 275.928 17.1709L271.223 10.7011C270.054 11.5514 269.218 12.7218 268.792 14.1037L276.439 16.4563ZM275.928 17.1709C275.782 17.2775 275.629 17.3478 275.496 17.3872C275.369 17.4249 275.295 17.424 275.304 17.424V9.424C273.929 9.424 272.49 9.77913 271.223 10.701L275.928 17.1709ZM275.304 17.424C275.312 17.424 275.238 17.4249 275.111 17.3872C274.978 17.3478 274.825 17.2775 274.679 17.1709L279.384 10.701C278.117 9.77913 276.678 9.424 275.304 9.424V17.424ZM274.679 17.1709C274.585 17.1025 274.472 16.9973 274.369 16.8529C274.265 16.7086 274.203 16.5676 274.168 16.4563L281.815 14.1037C281.389 12.7218 280.553 11.5514 279.384 10.7011L274.679 17.1709ZM274.134 16.3391L280.214 38.4831L287.929 36.3649L281.849 14.2209L274.134 16.3391ZM280.219 36.3488L279.451 39.1008L287.156 41.2512L287.924 38.4992L280.219 36.3488ZM282.039 43.9707L282.423 44.0987L284.952 36.5093L284.568 36.3813L282.039 43.9707ZM287.561 41.3004L293.833 16.9164L286.086 14.9236L279.814 39.3076L287.561 41.3004ZM293.874 16.744C293.869 16.7679 293.839 16.8857 293.737 17.0401C293.633 17.1996 293.504 17.3188 293.394 17.3922L288.957 10.7358C287.374 11.7907 286.413 13.3478 286.045 15.096L293.874 16.744ZM293.394 17.3922C293.366 17.4113 293.339 17.4253 293.318 17.4347C293.297 17.444 293.287 17.4465 293.291 17.4455C293.3 17.4431 293.376 17.424 293.544 17.424V9.424C291.991 9.424 290.386 9.78286 288.957 10.7358L293.394 17.3922ZM293.544 17.424C293.841 17.424 294.016 17.4494 294.095 17.4662C294.174 17.4827 294.119 17.4821 293.991 17.409L297.96 10.463C296.533 9.64779 294.948 9.424 293.544 9.424V17.424ZM292.123 12.8606L283.995 41.9806L291.7 44.1314L299.828 15.0114L292.123 12.8606ZM283.985 42.0161C283.956 42.1236 283.927 42.1659 283.915 42.182C283.903 42.1991 283.861 42.2519 283.742 42.3296L288.113 49.0304C289.9 47.8646 291.15 46.1761 291.71 44.0959L283.985 42.0161ZM283.848 42.2632C283.602 42.4126 283.179 42.576 282.408 42.576V50.576C284.367 50.576 286.29 50.1421 288.007 49.0968L283.848 42.2632ZM286.262 45.5054L278.582 17.8574L270.873 19.9986L278.553 47.6466L286.262 45.5054ZM273.757 15.0474L273.501 15.1114L275.442 22.8726L275.698 22.8086L273.757 15.0474ZM270.61 20.0356L271.25 22.4036L278.973 20.3164L278.333 17.9484L270.61 20.0356ZM271.264 20.2663L264.096 45.4823L271.791 47.6697L278.959 22.4537L271.264 20.2663ZM305.056 45.104L303.267 48.6817L303.297 48.6967L303.327 48.7113L305.056 45.104ZM300.256 40.944L296.891 43.107L296.903 43.1256L296.915 43.144L300.256 40.944ZM300.32 19.312L297.003 17.0754L296.985 17.1022L296.968 17.1293L300.32 19.312ZM305.248 15.024L307.036 18.6017L307.051 18.5944L307.065 18.587L305.248 15.024ZM318.688 14.96L316.868 18.5224L316.883 18.5301L316.899 18.5377L318.688 14.96ZM323.488 19.184L320.123 21.347L320.141 21.3751L320.159 21.4028L323.488 19.184ZM324.512 31.088L327.214 34.0366L327.214 34.0366L324.512 31.088ZM303.968 31.792V27.792H299.968V31.792H303.968ZM306.016 39.92L303.232 42.793L303.254 42.8143L303.277 42.8354L306.016 39.92ZM320.032 35.504L319.765 31.5129L316.032 31.7618V35.504H320.032ZM323.232 36.272L320.938 39.5489L321.03 39.6137L321.126 39.6731L323.232 36.272ZM322.784 42.608L319.955 39.7796L319.929 39.8053L319.904 39.8315L322.784 42.608ZM318.176 45.488L316.762 41.7461L316.762 41.7461L318.176 45.488ZM320.096 27.44V31.44H324.096V27.44H320.096ZM317.856 20.08L315.114 22.9928L315.158 23.0342L315.203 23.0743L317.856 20.08ZM306.144 20.08L308.839 23.0358L308.843 23.0321L306.144 20.08ZM303.968 27.44H299.968V31.44H303.968V27.44ZM312.032 42.576C309.94 42.576 308.219 42.1842 306.784 41.4967L303.327 48.7113C305.988 49.9864 308.918 50.576 312.032 50.576V42.576ZM306.844 41.5263C305.365 40.7868 304.326 39.8517 303.596 38.744L296.915 43.144C298.489 45.535 300.65 47.3732 303.267 48.6817L306.844 41.5263ZM303.62 38.781C302.901 37.6618 302.528 36.4132 302.528 34.928H294.528C294.528 37.8802 295.306 40.6422 296.891 43.107L303.62 38.781ZM302.528 34.928V25.456H294.528V34.928H302.528ZM302.528 25.456C302.528 23.9427 302.914 22.6577 303.671 21.4947L296.968 17.1293C295.335 19.6356 294.528 22.4466 294.528 25.456H302.528ZM303.636 21.5486C304.474 20.3053 305.582 19.3288 307.036 18.6017L303.459 11.4463C300.817 12.7672 298.639 14.6493 297.003 17.0754L303.636 21.5486ZM307.065 18.587C308.572 17.8181 310.208 17.424 312.032 17.424V9.424C308.991 9.424 306.104 10.0965 303.43 11.4609L307.065 18.587ZM312.032 17.424C313.883 17.424 315.471 17.8087 316.868 18.5224L320.507 11.3976C317.894 10.0633 315.044 9.424 312.032 9.424V17.424ZM316.899 18.5377C318.354 19.2652 319.389 20.2048 320.123 21.347L326.852 17.021C325.282 14.5792 323.117 12.7028 320.476 11.3823L316.899 18.5377ZM320.159 21.4028C320.893 22.5039 321.28 23.7507 321.28 25.264H329.28C329.28 22.2546 328.471 19.4481 326.816 16.9652L320.159 21.4028ZM321.28 25.264V29.36H329.28V25.264H321.28ZM321.28 29.36C321.28 29.1887 321.315 28.9442 321.432 28.6794C321.549 28.4163 321.701 28.2379 321.809 28.1394L327.214 34.0366C328.537 32.8247 329.28 31.1859 329.28 29.36H321.28ZM321.809 28.1394C321.908 28.0485 322.056 27.9475 322.245 27.876C322.43 27.8056 322.58 27.792 322.656 27.792V35.792C324.333 35.792 325.93 35.2144 327.214 34.0366L321.809 28.1394ZM322.656 27.792H303.968V35.792H322.656V27.792ZM299.968 31.792V34.672H307.968V31.792H299.968ZM299.968 34.672C299.968 37.7599 300.974 40.6056 303.232 42.793L308.799 37.047C308.326 36.5891 307.968 35.9361 307.968 34.672H299.968ZM303.277 42.8354C305.653 45.0675 308.772 45.904 312.032 45.904V37.904C310.086 37.904 309.194 37.4178 308.754 37.0046L303.277 42.8354ZM312.032 45.904C315.157 45.904 318.209 45.2193 320.563 43.2332L315.404 37.1188C315.027 37.4367 314.111 37.904 312.032 37.904V45.904ZM320.563 43.2332C322.925 41.2403 324.032 38.5138 324.032 35.504H316.032C316.032 36.4196 315.773 36.8077 315.404 37.1188L320.563 43.2332ZM320.298 39.4951C320.601 39.4749 320.777 39.5021 320.858 39.5215C320.898 39.5312 320.919 39.5398 320.927 39.5432C320.934 39.5465 320.937 39.5482 320.938 39.5489L325.525 32.9951C323.765 31.7626 321.738 31.3813 319.765 31.5129L320.298 39.4951ZM321.126 39.6731C321.048 39.625 320.863 39.4782 320.718 39.2084C320.577 38.9478 320.576 38.7599 320.576 38.768H328.576C328.576 36.3618 327.484 34.2001 325.337 32.8709L321.126 39.6731ZM320.576 38.768C320.576 38.8324 320.588 39.1463 319.955 39.7796L325.612 45.4364C327.368 43.6804 328.576 41.4343 328.576 38.768H320.576ZM319.904 39.8315C319.249 40.5111 318.256 41.1817 316.762 41.7461L319.589 49.2299C321.935 48.3436 324.014 47.0942 325.663 45.3845L319.904 39.8315ZM316.762 41.7461C315.32 42.2907 313.754 42.576 312.032 42.576V50.576C314.661 50.576 317.191 50.136 319.589 49.2299L316.762 41.7461ZM324.096 27.44V25.264H316.096V27.44H324.096ZM324.096 25.264C324.096 22.0754 322.923 19.2251 320.508 17.0856L315.203 23.0743C315.775 23.5803 316.096 24.1859 316.096 25.264H324.096ZM320.597 17.1672C318.248 14.9563 315.245 14.032 312.032 14.032V22.032C313.682 22.032 314.562 22.473 315.114 22.9928L320.597 17.1672ZM312.032 14.032C308.813 14.032 305.818 14.9574 303.444 17.1279L308.843 23.0321C309.455 22.4719 310.386 22.032 312.032 22.032V14.032ZM303.448 17.1242C301.089 19.2753 299.968 22.1149 299.968 25.264H307.968C307.968 24.1465 308.297 23.53 308.839 23.0358L303.448 17.1242ZM299.968 25.264V27.44H307.968V25.264H299.968ZM303.968 31.44H320.096V23.44H303.968V31.44ZM334.972 44.016L331.966 46.6552L331.982 46.6736L331.998 46.6919L334.972 44.016ZM334.012 1.648L336.336 4.90293L336.35 4.893L336.364 4.88294L334.012 1.648ZM338.236 0.623997H342.236V-3.376H338.236V0.623997ZM339.26 40.56L336.347 43.3015L336.347 43.3015L339.26 40.56ZM347.003 40.496L350.026 37.8763L347.858 35.3744L344.995 37.0368L347.003 40.496ZM346.236 45.424L343.898 42.1779L343.898 42.1779L346.236 45.424ZM341.948 42.576C339.545 42.576 338.479 41.9343 337.945 41.3401L331.998 46.6919C334.536 49.5111 338.121 50.576 341.948 50.576V42.576ZM337.977 41.3768C337.21 40.503 336.668 39.2259 336.668 37.168H328.668C328.668 40.742 329.661 44.0303 331.966 46.6552L337.977 41.3768ZM336.668 37.168V4.72H328.668V37.168H336.668ZM336.668 4.72C336.668 4.42935 336.715 4.39262 336.668 4.49927C336.644 4.55516 336.601 4.63173 336.535 4.71335C336.469 4.79527 336.398 4.85875 336.336 4.90293L331.687 -1.60694C329.451 -0.0104554 328.668 2.42003 328.668 4.72H336.668ZM336.364 4.88294C336.32 4.91523 336.396 4.8444 336.714 4.7674C337.034 4.68976 337.526 4.624 338.236 4.624V-3.376C335.992 -3.376 333.587 -2.98942 331.659 -1.58694L336.364 4.88294ZM334.236 0.623997V36.976H342.236V0.623997H334.236ZM334.236 36.976C334.236 39.0192 334.625 41.472 336.347 43.3015L342.172 37.8185C342.364 38.022 342.375 38.1531 342.338 38.0211C342.297 37.8787 342.236 37.5536 342.236 36.976H334.236ZM336.347 43.3015C338.129 45.1951 340.599 45.648 342.652 45.648V37.648C342.149 37.648 341.906 37.5879 341.841 37.5671C341.797 37.553 341.968 37.6012 342.172 37.8185L336.347 43.3015ZM342.652 45.648C344.912 45.648 347.059 45.0891 349.012 43.9552L344.995 37.0368C344.303 37.4389 343.548 37.648 342.652 37.648V45.648ZM343.981 43.1157C343.964 43.0967 343.916 43.0324 343.878 42.9287C343.839 42.8255 343.836 42.7506 343.836 42.736H351.836C351.836 40.9283 351.216 39.2496 350.026 37.8763L343.981 43.1157ZM343.836 42.736C343.836 42.6403 343.849 42.5276 343.881 42.4094C343.914 42.2916 343.958 42.197 343.998 42.1301C344.075 42.0012 344.099 42.0337 343.898 42.1779L348.573 48.6701C350.356 47.3865 351.836 45.4033 351.836 42.736H343.836ZM343.898 42.1779C343.72 42.306 343.2 42.576 341.948 42.576V50.576C344.279 50.576 346.617 50.078 348.573 48.6701L343.898 42.1779ZM355.222 44.016L352.216 46.6552L352.232 46.6736L352.248 46.6919L355.222 44.016ZM354.262 1.648L356.586 4.90293L356.6 4.893L356.614 4.88294L354.262 1.648ZM358.486 0.623997H362.486V-3.376H358.486V0.623997ZM359.51 40.56L356.597 43.3015L356.597 43.3015L359.51 40.56ZM367.253 40.496L370.276 37.8763L368.108 35.3744L365.245 37.0368L367.253 40.496ZM366.486 45.424L364.148 42.1779L364.148 42.1779L366.486 45.424ZM362.198 42.576C359.795 42.576 358.729 41.9343 358.195 41.3401L352.248 46.6919C354.786 49.5111 358.371 50.576 362.198 50.576V42.576ZM358.227 41.3768C357.46 40.503 356.918 39.2259 356.918 37.168H348.918C348.918 40.742 349.911 44.0303 352.216 46.6552L358.227 41.3768ZM356.918 37.168V4.72H348.918V37.168H356.918ZM356.918 4.72C356.918 4.42935 356.965 4.39262 356.918 4.49927C356.894 4.55516 356.851 4.63173 356.785 4.71335C356.719 4.79527 356.648 4.85875 356.586 4.90293L351.937 -1.60694C349.701 -0.0104554 348.918 2.42003 348.918 4.72H356.918ZM356.614 4.88294C356.57 4.91523 356.646 4.8444 356.964 4.7674C357.284 4.68976 357.776 4.624 358.486 4.624V-3.376C356.242 -3.376 353.837 -2.98942 351.909 -1.58694L356.614 4.88294ZM354.486 0.623997V36.976H362.486V0.623997H354.486ZM354.486 36.976C354.486 39.0192 354.875 41.472 356.597 43.3015L362.422 37.8185C362.614 38.022 362.625 38.1531 362.588 38.0211C362.547 37.8787 362.486 37.5536 362.486 36.976H354.486ZM356.597 43.3015C358.379 45.1951 360.849 45.648 362.902 45.648V37.648C362.399 37.648 362.156 37.5879 362.091 37.5671C362.047 37.553 362.218 37.6012 362.422 37.8185L356.597 43.3015ZM362.902 45.648C365.162 45.648 367.309 45.0891 369.262 43.9552L365.245 37.0368C364.553 37.4389 363.798 37.648 362.902 37.648V45.648ZM364.231 43.1157C364.214 43.0967 364.166 43.0324 364.128 42.9287C364.089 42.8255 364.086 42.7506 364.086 42.736H372.086C372.086 40.9283 371.466 39.2496 370.276 37.8763L364.231 43.1157ZM364.086 42.736C364.086 42.6403 364.099 42.5276 364.131 42.4094C364.164 42.2916 364.208 42.197 364.248 42.1301C364.325 42.0012 364.349 42.0337 364.148 42.1779L368.823 48.6701C370.606 47.3865 372.086 45.4033 372.086 42.736H364.086ZM364.148 42.1779C363.97 42.306 363.45 42.576 362.198 42.576V50.576C364.529 50.576 366.867 50.078 368.823 48.6701L364.148 42.1779Z" fill="#B3FFDA"/>
</g>
<defs>
<filter id="filter0_d_1_2" x="0.479996" y="0.623993" width="371.605" height="53.952" filterUnits="userSpaceOnUse" color-interpolation-filters="sRGB">
<feFlood flood-opacity="0" result="BackgroundImageFix"/>
<feColorMatrix in="SourceAlpha" type="matrix" values="0 0 0 0 0 0 0 0 0 0 0 0 0 0 0 0 0 0 127 0" result="hardAlpha"/>
<feOffset dy="4"/>
<feGaussianBlur stdDeviation="2"/>
<feComposite in2="hardAlpha" operator="out"/>
<feColorMatrix type="matrix" values="0 0 0 0 0 0 0 0 0 0 0 0 0 0 0 0 0 0 0.25 0"/>
<feBlend mode="normal" in2="BackgroundImageFix" result="effect1_dropShadow_1_2"/>
<feBlend mode="normal" in="SourceGraphic" in2="effect1_dropShadow_1_2" result="shape"/>
</filter>
</defs>
</svg>
